<?xml version="1.0" encoding="utf-8"?>
<svg class="img-fluid" id="outputsvg" style="cursor: move; max-height: none; transition: none;" width="900" height="900" viewBox="0 0 12500 12500" xmlns="http://www.w3.org/2000/svg" xmlns:xlink="http://www.w3.org/1999/xlink" xmlns:bx="https://boxy-svg.com"><defs><bx:export><bx:file format="svg" path="Untitled 3.svg" xlink:href="#l3KqxLtEkMp3jwlcW12fSLi"/><bx:file format="svg" path="Untitled 4.svg" xlink:href="#l7j0GfQarPRwq0YvW3UWLKD"/><bx:file format="svg" path="Untitled 5.svg" xlink:href="#l1ZOx5s5ayYUzp85XhDTdaO"/><bx:file format="svg" path="Untitled 6.svg" xlink:href="#object-1"/><bx:file format="svg" path="Untitled 7.svg" xlink:href="#l1wUkRzmsvUe4RUJ4Af2vlB"/><bx:file format="svg" path="Untitled 8.svg" xlink:href="#l5OEwlHioFSakQoVUiX52UU"/><bx:file format="svg" path="Untitled 9.svg" xlink:href="#l2UN14oftP1AmSp4Uxz62yk"/><bx:file format="svg" path="Untitled 10.svg" xlink:href="#l4r5D9gx6nsvnIfWXsgIhJl"/><bx:file format="svg" path="Untitled 11.svg" xlink:href="#l4s267HXffgIWPl8Dy5CFlJ"/><bx:file format="svg" path="Untitled 12.svg" xlink:href="#object-2"/><bx:file format="svg" path="Untitled 13.svg" xlink:href="#object-3"/><bx:file format="svg" path="Untitled 14.svg" xlink:href="#l7BjGOVjwX4nUb4mivburKp"/><bx:file format="svg" path="Untitled 15.svg" xlink:href="#l3iOFxhz3c8KUOxHyqV7zpC"/><bx:file format="svg"/></bx:export></defs><rect x="-4.073" y="-11.235" width="12497.877" height="12557.757" style="stroke: rgb(0, 0, 0); fill: rgb(242, 101, 13);"/><g id="l3KqxLtEkMp3jwlcW12fSLi" fill="rgb(153,251,250)" style="" transform="matrix(1.096781, 0, 0, 1.093525, 1116.857178, 490.587158)"><g style="transform: none;"><path id="p44IJWbQO" d="M 8825 7333 c -9 -54 -25 -82 -54 -96 -28 -14 -33 -29 -56 -186 -28 -187 -44 -238 -193 -586 -9 -22 -39 -76 -66 -120 -27 -44 -74 -127 -104 -185 -29 -57 -63 -118 -75 -135 -48 -70 -188 -238 -283 -340 -150 -163 -214 -241 -225 -278 -5 -17 -9 -76 -9 -129 0 -75 3 -98 13 -98 21 0 314 310 413 435 154 197 259 370 422 700 80 162 120 258 166 404 73 226 87 301 93 484 5 164 5 167 -15 167 -17 0 -22 -8 -27 -37 z "/><path id="p16YzCZVfG" d="M 4570 6523 c -19 -1 -129 -10 -245 -19 -136 -11 -242 -25 -300 -39 -349 -88 -470 -132 -830 -301 -77 -36 -358 -302 -466 -441 -37 -47 -40 -55 -37 -105 2 -41 7 -54 21 -56 12 -3 72 49 185 160 115 112 200 185 272 234 222 151 551 292 835 358 39 9 86 21 106 26 107 29 250 42 514 47 476 9 797 -37 1209 -173 110 -36 336 -134 416 -179 125 -71 285 -191 391 -292 58 -57 114 -103 123 -103 54 0 -23 159 -123 251 -157 145 -229 198 -381 278 -253 132 -513 214 -955 302 -201 40 -582 67 -735 52 z "/><path id="p28kRs5sN" d="M 7434 4406 c -74 -75 -73 -72 -85 -147 -5 -34 -19 -79 -29 -100 -11 -21 -20 -46 -20 -56 0 -10 -7 -27 -15 -37 -10 -14 -15 -45 -15 -102 0 -145 -67 -551 -111 -669 -10 -27 -30 -90 -44 -140 -15 -49 -45 -124 -67 -165 -22 -41 -77 -145 -122 -230 -45 -85 -102 -182 -126 -214 -25 -32 -54 -71 -65 -85 -118 -158 -290 -342 -405 -435 -83 -67 -328 -229 -403 -267 -31 -16 -81 -39 -110 -50 -53 -21 -190 -81 -284 -125 -61 -28 -69 -46 -58 -129 7 -63 4 -62 110 -40 268 56 744 331 1058 612 160 144 331 339 399 458 22 38 60 99 83 135 23 36 81 146 128 245 186 391 248 623 288 1084 11 131 7 437 -7 494 -10 40 -31 32 -100 -37 z "/><path id="pvtYMOvA8" d="M 2645 1798 c -29 -20 -62 -53 -80 -82 -30 -49 -30 -51 -30 -188 0 -104 -3 -138 -12 -138 -20 0 -15 -45 9 -95 30 -62 53 -60 62 4 16 121 84 263 176 365 76 85 84 110 47 144 -37 35 -109 30 -172 -10 z "/><path id="p12V7myeK7" d="M 5099 1497 c -42 -39 -94 -97 -115 -127 -40 -57 -54 -76 -142 -182 -55 -67 -71 -90 -142 -216 -23 -39 -48 -72 -55 -72 -12 0 -25 -50 -25 -97 0 -34 34 -29 89 11 25 19 127 117 227 218 147 149 194 204 253 295 72 112 72 113 69 175 -3 63 -3 63 -43 65 -37 3 -45 -2 -116 -70 z "/></g></g><g id="l7j0GfQarPRwq0YvW3UWLKD" fill="rgb(57,242,227)" style="" transform="matrix(1.096781, 0, 0, 1.093525, 1116.857178, 490.587158)"><g style="transform: none;"><path id="pX2plBcsS" d="M 7380 5585 c -16 -30 -58 -55 -93 -55 -12 0 -27 -4 -32 -9 -14 -14 -85 -25 -85 -14 0 15 -103 38 -108 24 -2 -6 -18 -11 -35 -11 -27 0 -38 -8 -72 -57 -63 -89 -148 -181 -169 -182 -11 -1 -34 4 -52 11 -28 10 -37 8 -77 -15 -25 -15 -52 -27 -60 -27 -19 0 -58 -83 -65 -136 -4 -41 -4 -41 38 -47 32 -4 53 -16 84 -46 23 -23 49 -41 58 -41 19 0 65 -35 78 -61 9 -16 5 -22 -22 -39 -18 -11 -51 -25 -73 -30 -22 -6 -53 -18 -69 -27 -16 -9 -60 -18 -97 -21 -60 -4 -69 -7 -69 -24 0 -10 -34 -53 -75 -94 -41 -41 -75 -79 -75 -85 0 -5 14 -33 30 -62 33 -58 38 -101 15 -131 -19 -25 -19 -46 0 -46 8 0 31 -18 51 -40 20 -22 43 -40 50 -40 8 0 14 -4 14 -10 0 -5 12 -10 28 -10 15 0 37 -3 48 -6 24 -6 23 -11 -29 -91 -30 -47 -33 -64 -15 -96 18 -35 27 -97 14 -97 -20 0 -146 -178 -146 -206 0 -8 17 -45 37 -82 36 -67 36 -67 -21 -142 -32 -41 -62 -76 -67 -78 -5 -2 -9 -12 -9 -22 0 -11 -16 -81 -35 -157 -67 -260 -193 -483 -394 -694 -106 -111 -177 -167 -333 -260 -51 -30 -58 -37 -58 -65 0 -17 6 -47 13 -65 10 -25 11 -48 4 -87 -9 -53 -9 -53 -73 -47 -48 6 -70 4 -86 -7 -42 -26 -133 -42 -190 -32 -51 9 -53 10 -50 39 5 51 -24 68 -100 61 -191 -17 -375 -18 -473 -2 -166 26 -239 51 -460 156 -110 52 -132 60 -152 51 -41 -19 -70 -12 -113 24 -23 19 -50 35 -60 35 -10 0 -23 7 -30 15 -7 8 -20 15 -29 15 -9 1 -34 12 -56 25 -22 13 -73 39 -113 59 -119 58 -233 161 -242 219 -7 44 -40 51 -40 8 0 -30 -1 -31 -50 -31 -41 0 -50 -3 -50 -17 0 -10 -5 -25 -10 -33 -9 -13 -12 -13 -21 2 -16 28 -56 21 -151 -28 -16 -9 -59 -14 -116 -14 -67 0 -93 -4 -102 -15 -7 -8 -28 -15 -46 -15 -19 0 -34 -5 -34 -11 0 -6 15 -34 34 -62 18 -29 58 -93 89 -144 30 -51 95 -136 143 -190 172 -189 229 -248 274 -284 75 -61 150 -134 150 -147 0 -7 8 -12 18 -12 17 0 33 -21 45 -61 12 -39 468 -239 543 -239 44 0 100 -38 115 -78 6 -15 11 -60 11 -99 0 -45 4 -73 11 -73 31 0 113 63 199 153 98 102 98 102 123 77 23 -24 47 -73 131 -278 42 -102 64 -201 64 -293 0 -62 2 -69 20 -69 21 0 28 16 9 22 -7 2 -8 20 -4 50 5 30 11 45 19 42 6 -2 22 16 34 41 12 25 39 72 59 106 35 56 56 84 155 207 21 26 62 81 92 122 74 103 187 202 224 198 25 -3 27 -7 30 -55 2 -29 6 -53 9 -53 3 0 21 17 39 38 43 51 105 79 139 64 15 -7 25 -20 25 -32 0 -28 17 -25 24 5 4 17 22 32 59 49 94 44 231 104 284 125 29 11 79 34 110 50 75 38 320 200 403 267 115 93 287 277 405 435 11 14 40 53 65 85 24 32 81 129 126 214 45 85 100 189 122 230 22 41 52 116 67 165 14 50 34 113 44 140 44 119 113 538 112 676 -1 52 4 82 14 95 8 10 15 27 15 37 0 10 9 35 19 55 11 21 22 56 26 77 3 22 9 53 12 70 4 19 30 53 74 97 38 37 72 68 74 68 3 0 5 -9 5 -19 0 -11 4 -23 10 -26 12 -8 1 1022 -11 1047 -5 9 -9 26 -9 37 0 14 -6 21 -20 21 -11 0 -20 -7 -20 -15 0 -36 -19 -10 -32 42 -16 65 -36 78 -58 38 z "/></g></g><g id="l1ZOx5s5ayYUzp85XhDTdaO" fill="rgb(58,228,229)" style="" transform="matrix(1.096781, 0, 0, 1.093525, 1116.857178, 490.587158)"><g style="transform: none;"><path id="pCUQFri1t" d="M 7300 8681 c -23 -44 -69 -59 -175 -59 -123 0 -243 -25 -420 -87 -71 -25 -146 -45 -165 -45 -19 0 -75 -11 -125 -24 -49 -13 -108 -26 -130 -29 -22 -4 -63 -13 -91 -22 -53 -15 -284 -149 -355 -205 -44 -36 -42 -20 -28 -195 3 -37 -21 -179 -43 -251 -21 -70 -21 -70 -115 -53 -126 24 -419 34 -548 20 -55 -7 -174 -18 -265 -26 -150 -12 -173 -16 -252 -49 -48 -20 -133 -47 -190 -60 -150 -36 -321 -101 -552 -210 -186 -88 -289 -114 -316 -81 -20 24 -57 17 -97 -19 -50 -44 -75 -56 -115 -56 -89 -1 -109 -35 -24 -42 69 -6 109 -35 160 -118 39 -63 39 -63 21 -97 -10 -18 -33 -51 -51 -72 -82 -96 -210 -96 -259 -1 -32 63 -8 221 40 258 14 11 25 25 25 31 0 13 -59 14 -79 2 -10 -6 -26 -1 -50 14 -20 13 -49 27 -66 31 -16 3 -47 16 -68 27 -37 21 -37 21 -83 -24 -104 -102 -194 -260 -234 -410 -112 -423 -110 -412 -116 -572 -6 -132 -11 -166 -39 -262 -54 -181 -84 -576 -54 -716 19 -90 13 -437 -12 -664 -30 -272 -53 -913 -38 -1063 6 -64 14 -162 18 -217 5 -68 23 -162 56 -295 44 -173 58 -211 120 -335 70 -140 70 -140 110 -137 22 2 47 10 56 18 11 10 42 14 103 14 56 0 98 5 114 14 15 8 46 22 70 32 42 17 43 17 63 -4 28 -30 37 -28 45 13 6 34 7 35 55 35 48 0 49 1 49 31 0 17 4 28 10 24 6 -3 10 -18 10 -33 0 -49 123 -160 242 -218 40 -20 91 -46 113 -59 22 -13 47 -24 56 -25 9 0 22 -7 29 -15 7 -8 20 -15 30 -15 10 0 37 -16 60 -35 46 -38 100 -47 135 -21 17 12 12 17 -56 61 -45 29 -127 101 -210 184 -110 110 -153 162 -228 275 -109 166 -143 233 -188 380 -46 148 -62 251 -70 436 -7 190 5 296 53 461 144 499 560 944 1031 1104 137 47 434 90 556 81 150 -12 409 -71 545 -125 245 -98 522 -331 692 -583 93 -138 143 -239 198 -403 81 -241 103 -541 56 -732 -11 -41 16 -18 85 71 61 79 61 79 20 155 -41 76 -41 76 9 151 78 116 86 123 110 115 25 -7 29 7 7 25 -8 7 -15 23 -15 36 0 13 -7 39 -16 58 -17 34 -16 35 15 81 17 25 31 49 31 52 0 4 7 15 17 25 21 24 16 27 -46 35 -28 3 -51 10 -51 14 0 5 -6 9 -14 9 -7 0 -30 18 -50 40 -20 22 -43 40 -52 40 -15 0 -15 2 0 25 25 38 20 92 -14 151 -30 53 -30 53 45 128 41 41 75 83 75 94 0 15 9 19 48 21 55 2 119 18 126 30 3 5 22 12 43 16 44 8 104 37 123 59 11 14 7 22 -28 56 -22 22 -48 40 -58 40 -10 0 -37 18 -60 41 -31 30 -52 42 -84 46 -41 6 -42 7 -37 38 8 47 47 125 64 125 8 0 34 12 58 26 33 19 49 23 62 16 10 -6 32 -11 48 -13 26 -3 39 6 90 62 33 36 78 91 100 123 33 46 44 56 63 53 13 -3 30 2 37 10 9 8 20 11 27 6 7 -4 24 -9 38 -11 14 -2 28 -9 32 -17 6 -10 17 -11 50 -3 24 6 47 15 53 19 5 5 20 9 32 9 35 0 77 25 92 54 8 14 17 23 21 21 4 -2 13 -32 20 -65 7 -33 15 -58 18 -55 3 3 11 0 19 -6 10 -9 13 -6 13 15 0 14 5 26 10 26 6 0 10 -10 10 -23 0 -13 7 -32 15 -43 14 -17 15 56 13 708 -3 727 -3 727 -30 734 -46 10 -145 90 -194 156 -138 188 -204 433 -158 589 45 152 122 245 229 278 37 12 78 21 90 21 13 0 26 3 28 8 3 4 1 113 -3 242 -9 272 -18 315 -88 437 -37 65 -52 83 -69 83 -12 0 -27 -9 -33 -19 z  M3085.032854011448 6626.279917449133 C 3085.032854011448 6523.530568499436 3001.738049141692 6440.235763629681 2898.988700191996 6440.235763629681 2796.2393512423 6440.235763629681 2712.9445463725442 6523.530568499436 2712.9445463725442 6626.279917449133 2712.9445463725442 6729.029266398829 2796.2393512423 6812.324071268585 2898.988700191996 6812.324071268585 3001.738049141692 6812.324071268585 3085.032854011448 6729.029266398829 3085.032854011448 6626.279917449133 Z M2931.0 6810.0  m 2094 -311 c 114 -8 310 -43 510 -88 279 -64 516 -148 715 -252 152 -80 224 -133 381 -278 86 -79 171 -231 129 -231 -17 0 -11 -13 20 -49 27 -31 28 -35 16 -60 -26 -49 -84 -100 -123 -107 -37 -7 -39 -6 -118 78 -44 46 -111 110 -150 140 -38 31 -81 68 -94 82 -43 46 -61 36 -116 -67 -79 -146 -165 -219 -304 -261 -127 -38 -221 -6 -306 102 -80 101 -135 291 -138 474 -2 68 -5 89 -17 94 -8 3 -100 17 -205 31 -166 23 -226 26 -475 27 -282 0 -441 -12 -615 -47 -60 -12 -60 -12 -67 -127 -9 -135 -32 -219 -95 -343 -53 -107 -126 -189 -189 -213 -128 -49 -327 60 -473 259 -23 31 -46 57 -52 57 -6 0 -36 -25 -66 -55 -55 -55 -209 -184 -285 -239 -57 -41 -109 -33 -160 25 -39 43 -47 75 -25 98 10 10 9 14 -5 22 -13 7 -18 22 -18 53 0 38 7 51 63 117 148 174 365 377 442 413 360 169 481 213 830 301 58 14 164 28 300 39 116 9 226 18 245 20 46 5 295 -3 445 -15 z "/><path id="pZZ7ddkjP" d="M 8671 7974 c -17 -14 -54 -61 -82 -103 -29 -42 -52 -77 -54 -79 -1 -1 -16 5 -34 14 -49 24 -85 9 -145 -60 -45 -51 -51 -63 -52 -106 -1 -59 -32 -120 -70 -140 -16 -8 -45 -25 -66 -38 -49 -32 -146 -34 -209 -5 -39 19 -64 21 -239 23 -154 1 -201 4 -227 17 -37 17 -63 48 -63 75 0 11 -8 18 -20 18 -18 0 -20 -7 -20 -78 0 -105 21 -179 82 -289 57 -104 128 -183 239 -266 43 -31 80 -64 83 -73 4 -9 -1 -42 -9 -73 -14 -48 -15 -146 -13 -728 3 -672 3 -672 66 -595 35 42 110 127 166 187 95 102 234 270 283 340 12 17 46 78 75 135 30 58 77 141 104 185 27 44 57 98 66 120 149 348 165 399 193 586 23 157 28 172 56 186 29 14 45 42 54 96 11 71 25 37 25 -63 0 -55 4 -100 9 -100 24 0 29 313 7 455 -22 146 -59 250 -124 347 -29 45 -40 47 -81 12 z "/><path id="p1ERc7bGTf" d="M 1136 7875 c -3 -8 -12 -15 -20 -15 -7 0 -41 -18 -74 -40 -63 -42 -76 -64 -87 -140 -4 -25 -18 -80 -31 -123 -17 -56 -24 -101 -24 -162 0 -61 -7 -109 -25 -171 -34 -116 -34 -236 -1 -377 13 -56 27 -120 31 -142 14 -82 96 -302 137 -370 10 -16 18 -38 18 -48 0 -10 8 -32 17 -50 29 -55 132 -340 127 -349 -3 -4 -14 -8 -25 -8 -30 0 -24 -33 20 -105 71 -116 149 -208 387 -458 110 -114 149 -141 165 -116 5 8 7 23 5 34 -3 11 -8 64 -12 118 -6 82 -9 97 -23 95 -10 -2 -18 -19 -23 -47 -4 -24 -9 -45 -11 -47 -2 -2 -16 29 -31 69 -15 39 -43 106 -62 147 -38 80 -38 79 -5 200 20 75 20 75 -1 175 -24 111 -25 141 -10 200 29 107 52 241 52 302 0 74 10 93 46 93 51 0 54 6 54 105 0 57 -6 109 -15 135 -30 86 -16 120 82 195 102 77 162 135 208 200 61 85 115 197 115 238 0 33 -2 34 -55 47 -50 12 -60 12 -93 -5 -46 -22 -153 -45 -209 -45 -23 0 -72 -7 -110 -16 -93 -21 -119 -14 -183 51 -30 30 -58 55 -63 55 -5 0 -35 16 -67 36 -39 24 -63 47 -75 72 -10 20 -24 49 -31 63 -25 49 -64 167 -64 193 0 28 -24 36 -34 11 z "/><path id="p16s3g554y" d="M 2670 2281 c 0 -28 356 -370 470 -451 113 -81 258 -170 276 -170 8 0 11 7 8 17 -14 42 -29 63 -46 63 -10 0 -18 5 -18 12 0 13 -75 86 -150 147 -44 35 -91 84 -279 290 -94 102 -94 102 -115 82 -29 -27 -48 -26 -84 4 -36 30 -62 32 -62 6 z "/><path id="pE7pDskzG" d="M 5448 2275 c -49 -27 -262 -102 -340 -121 -72 -16 -103 -34 -60 -34 28 0 52 -32 49 -65 -2 -27 1 -29 56 -41 49 -10 68 -9 120 5 34 9 72 22 84 29 16 9 43 10 87 6 63 -6 63 -6 74 56 9 51 9 69 -3 97 -8 20 -15 46 -15 59 0 27 -13 30 -52 9 z "/><path id="p6Fzi7ZTO" d="M 2581 1928 c -8 -29 -27 -80 -44 -113 -27 -54 -30 -70 -31 -160 -1 -109 11 -215 23 -215 5 0 10 49 13 109 4 100 7 114 34 158 40 64 114 113 172 113 24 0 42 4 40 9 -8 22 -158 151 -175 151 -15 0 -22 -12 -32 -52 z "/><path id="p1CE8vUzu3" d="M 7130 1896 c -8 -8 -58 -32 -110 -53 -95 -38 -95 -38 -93 -206 2 -92 1 -167 -1 -167 -2 0 -11 21 -21 48 -10 26 -39 93 -66 148 -27 56 -49 115 -49 133 0 43 -26 41 -70 -4 -25 -26 -32 -39 -25 -49 6 -7 27 -35 47 -62 57 -75 98 -163 138 -297 34 -112 39 -122 61 -122 20 0 32 15 76 100 28 55 76 158 104 230 50 123 53 135 54 220 0 72 -3 90 -15 93 -8 1 -22 -4 -30 -12 z "/></g></g><ellipse style="stroke: rgb(0, 0, 0); fill: rgb(255, 255, 255);" cx="6330.958" cy="4544.618" rx="1730.945" ry="1718.742" id="object-1"/><g id="l1wUkRzmsvUe4RUJ4Af2vlB" fill="rgb(39,193,226)" style="" transform="matrix(1.096781, 0, 0, 1.093525, 1116.857178, 490.587158)"><g style="transform: none;"><path id="p1Ee7QAmYa" d="M 5745 8144 c -27 -18 -66 -49 -85 -67 -20 -18 -44 -36 -54 -40 -16 -7 -18 -15 -12 -69 7 -56 5 -67 -23 -122 -17 -34 -34 -75 -37 -92 -6 -31 -6 -31 108 -53 138 -25 144 -26 129 -7 -8 10 -7 22 4 50 18 42 50 226 47 271 -1 17 -3 60 -5 97 -1 38 -6 68 -12 67 -5 0 -32 -16 -60 -35 z "/><path id="pkiMHHi0j" d="M 1112 8077 c -23 -24 -65 -56 -92 -73 -46 -27 -51 -34 -76 -108 -22 -69 -25 -85 -15 -117 6 -20 18 -42 26 -49 12 -10 17 -7 27 14 12 27 119 106 144 106 7 0 18 8 23 18 9 14 10 13 11 -12 0 -28 38 -144 64 -195 7 -14 21 -43 31 -63 12 -25 36 -48 75 -72 98 -61 104 -48 25 59 -126 170 -169 285 -163 438 3 86 2 92 -17 95 -13 2 -35 -13 -63 -41 z "/><path id="pA6Vy2r2B" d="M 8593 8081 c -3 -11 -31 -35 -63 -55 -62 -38 -123 -105 -159 -171 -21 -40 -21 -40 -21 6 0 66 -10 109 -26 109 -9 0 -14 -12 -14 -32 -1 -110 -62 -265 -166 -420 -40 -60 -51 -84 -42 -90 18 -11 19 -11 58 14 19 13 53 32 74 43 49 25 80 80 82 147 1 41 8 55 49 104 58 67 85 80 128 59 16 -8 35 -15 41 -15 6 0 33 34 61 76 51 79 110 139 126 129 5 -4 9 0 9 7 0 20 -93 108 -114 108 -10 0 -20 -9 -23 -19 z "/><path id="pLkQ76cAl" d="M 2006 7645 c -9 -13 -16 -28 -16 -33 0 -21 -139 -137 -197 -165 -35 -17 -63 -35 -63 -39 0 -23 187 5 249 36 29 15 39 16 82 5 36 -9 49 -18 49 -31 0 -10 4 -18 9 -18 23 0 29 132 7 183 -17 40 -63 87 -86 87 -10 0 -25 -11 -34 -25 z "/><path id="p7kS2atEg" d="M 3168 7540 c -66 -36 -286 -291 -240 -278 4 1 21 -5 37 -14 17 -8 44 -18 60 -22 17 -4 47 -19 69 -33 32 -21 43 -23 63 -14 30 14 66 14 58 1 -3 -5 0 -10 7 -10 21 0 41 17 34 28 -7 12 26 22 72 22 40 0 65 12 115 56 41 38 58 42 77 19 15 -19 101 -17 107 1 2 7 -18 23 -45 36 -27 14 -67 39 -88 56 -96 78 -227 164 -257 168 -20 2 -46 -3 -69 -16 z "/><path id="pLi78HbFS" d="M 1720 6641 c 0 -84 -4 -91 -54 -91 -37 0 -46 -19 -46 -94 0 -39 -9 -108 -20 -154 -11 -46 -20 -95 -21 -110 0 -15 -8 -47 -18 -72 -14 -33 -16 -51 -9 -71 5 -15 17 -67 27 -115 17 -86 17 -90 -2 -159 -33 -119 -32 -132 6 -215 20 -41 48 -108 64 -148 16 -41 33 -74 38 -74 6 0 14 18 19 39 15 66 20 70 24 13 2 -30 8 -59 13 -65 7 -7 9 151 5 485 -3 272 -6 588 -6 702 0 132 -4 208 -10 208 -6 0 -10 -33 -10 -79 z "/><path id="pZvlP1QvW" d="M 740 6685 c 0 -59 184 -474 262 -590 18 -27 60 -94 93 -147 54 -90 75 -114 75 -88 0 6 9 10 20 10 11 0 23 7 26 15 6 14 -91 286 -127 357 -10 20 -19 45 -19 55 0 10 -8 32 -18 48 -16 26 -65 143 -102 241 -6 17 -21 37 -33 43 -12 6 -41 27 -65 46 -56 45 -112 50 -112 10 z "/><path id="pBJt5SLDP" d="M 2310 2807 c 0 -26 106 -207 183 -312 111 -151 168 -216 187 -210 10 3 23 -2 31 -11 8 -10 29 -23 48 -31 31 -13 35 -13 57 8 13 12 24 27 24 33 0 10 -76 140 -143 244 -16 24 -44 72 -64 108 -31 57 -63 84 -63 53 0 -6 -19 6 -42 26 -29 24 -51 35 -68 33 -30 -3 -86 34 -95 62 -9 30 -55 27 -55 -3 z "/><path id="pQ3P2D1FB" d="M 2577 1981 c -4 -16 -20 -65 -37 -109 -27 -71 -35 -82 -83 -115 -30 -21 -63 -37 -75 -37 -24 0 -37 -29 -27 -62 12 -42 148 -318 157 -318 4 0 8 9 8 20 0 14 5 18 16 13 14 -5 16 -1 11 28 -3 19 -11 54 -17 79 -7 25 -12 95 -13 155 0 101 2 114 27 164 28 54 61 149 58 164 -1 4 5 7 13 7 18 0 19 12 3 28 -20 20 -35 14 -41 -17 z "/><path id="p18nIcB2Tu" d="M 6853 1918 c -78 -80 -80 -84 -76 -123 3 -22 26 -85 53 -140 26 -55 58 -127 70 -160 13 -33 27 -64 33 -70 5 -6 6 61 2 178 -7 188 -7 188 43 209 47 20 51 24 45 47 -4 14 -7 52 -7 84 -1 57 -1 57 -41 57 -37 0 -47 -6 -122 -82 z "/></g></g><g id="l5OEwlHioFSakQoVUiX52UU" fill="rgb(19,169,225)" style="" transform="matrix(1.096781, 0, 0, 1.093525, 1116.857178, 490.587158)"><g style="transform: none;"><path id="pNtTWfYaq" d="M 6910 8871 c 0 -15 8 -21 32 -23 29 -3 33 -7 40 -42 7 -35 4 -44 -29 -93 -21 -31 -41 -60 -44 -67 -3 -6 -11 -22 -18 -34 -7 -13 -10 -26 -8 -28 2 -2 37 3 78 12 41 8 119 15 174 15 105 0 152 16 175 60 6 10 17 19 25 19 8 0 15 3 15 8 0 18 -92 162 -112 176 -18 13 -53 16 -175 16 -145 0 -153 -1 -153 -19 z "/><path id="p1720cMvV5" d="M 5357 8063 c -2 -27 -9 -61 -15 -78 -6 -16 -16 -48 -21 -71 -11 -42 -42 -80 -99 -123 -65 -49 -45 -56 183 -67 140 -6 140 -6 142 21 0 15 16 56 33 91 30 57 32 69 26 120 -4 35 -2 61 4 69 8 10 0 17 -37 29 -56 18 -194 56 -204 56 -4 0 -9 -21 -12 -47 z "/><path id="poEJDbk8W" d="M 3500 7777 c -19 -5 -60 -29 -91 -53 -52 -40 -183 -93 -229 -94 -32 0 -70 -63 -70 -116 0 -37 0 -37 23 -17 36 34 86 55 110 47 22 -7 172 -110 239 -165 21 -16 64 -44 95 -60 71 -38 72 -37 298 65 154 71 258 116 300 130 19 7 18 9 -7 22 -16 8 -28 20 -28 26 0 7 -13 9 -34 5 -18 -3 -38 -1 -44 5 -7 7 -22 6 -48 -2 -24 -8 -61 -10 -106 -6 -72 6 -118 28 -186 87 -18 16 -39 29 -47 29 -20 0 -74 48 -91 83 -15 29 -28 31 -84 14 z "/><path id="pu1H9oT94" d="M 1844 7660 c -32 -17 -92 -57 -133 -90 -70 -56 -201 -177 -201 -185 0 -13 80 -15 136 -5 96 18 207 76 287 150 37 34 67 68 67 75 0 7 12 25 26 40 33 36 20 45 -62 45 -48 0 -73 -6 -120 -30 z "/><path id="pdTP517qf" d="M 7473 7670 c -42 -13 -97 -90 -64 -90 5 0 11 -13 14 -29 4 -17 20 -39 39 -52 31 -23 44 -24 228 -30 196 -5 233 -3 228 12 -8 21 -150 133 -204 160 -68 34 -181 47 -241 29 z "/><path id="pKox23ecW" d="M 2020 3655 c 0 -123 120 -502 242 -767 36 -78 58 -107 58 -78 0 18 28 10 35 -9 10 -31 71 -72 97 -66 17 4 34 -3 65 -30 47 -40 49 -40 69 -21 12 12 8 26 -25 98 -53 113 -141 462 -140 555 0 38 -5 92 -10 122 -6 29 -11 78 -11 107 0 29 -4 56 -10 59 -6 4 -10 -10 -10 -34 0 -41 0 -41 -62 -41 -87 0 -137 16 -173 56 -17 19 -37 34 -43 34 -7 0 -22 16 -34 35 -34 51 -48 45 -48 -20 z "/><path id="pWzlGnq6n" d="M 7130 2279 c -18 -43 -103 -172 -151 -229 -22 -26 -39 -49 -39 -53 0 -4 15 -7 33 -7 32 0 32 0 33 -64 2 -98 4 -100 65 -77 28 11 59 27 68 35 24 22 31 11 31 -51 0 -29 4 -53 9 -53 13 0 20 58 26 235 5 137 4 169 -12 225 -21 75 -43 89 -63 39 z "/></g></g><g id="l2UN14oftP1AmSp4Uxz62yk" fill="rgb(21,153,218)" style="" transform="matrix(1.096781, 0, 0, 1.093525, 1116.857178, 490.587158)"><g style="transform: none;"><path id="p14jMxTk7Z" d="M 2310 8894 c -8 -3 -39 -54 -68 -115 -126 -262 -144 -338 -144 -594 1 -251 0 -246 75 -281 87 -41 157 -116 199 -212 30 -72 33 -85 33 -187 0 -126 -11 -170 -80 -310 -56 -112 -142 -213 -258 -302 -88 -68 -88 -68 -89 -1458 -1 -1323 2 -1552 28 -1737 7 -51 24 -66 24 -21 0 25 1 24 30 -15 17 -23 34 -41 39 -39 4 1 21 -12 38 -30 35 -37 94 -55 181 -55 35 0 65 2 66 4 2 1 9 156 16 343 14 406 24 586 39 720 25 218 32 592 12 683 -29 138 0 516 54 697 28 96 34 130 39 264 7 162 5 151 116 570 39 147 111 275 231 411 27 30 89 101 139 156 66 74 90 109 90 129 0 43 41 105 70 105 46 1 177 54 229 94 31 23 74 48 96 54 35 11 41 10 50 -5 20 -34 82 -93 98 -93 9 0 31 -13 49 -29 73 -63 115 -81 197 -88 47 -3 91 -1 110 5 21 7 33 8 37 1 4 -6 21 -8 40 -4 21 4 34 2 34 -5 0 -6 11 -15 24 -21 19 -9 39 -6 103 15 43 14 117 35 165 46 48 11 127 36 175 56 80 33 103 37 258 50 94 8 226 20 295 28 108 11 120 14 86 21 -39 8 -39 8 -6 34 62 49 90 84 101 125 5 23 15 55 21 71 6 17 14 54 17 82 7 53 7 53 -25 63 -18 6 -112 27 -210 46 -293 59 -487 57 -804 -6 -98 -20 -248 -68 -357 -114 -106 -45 -156 -30 -133 38 13 39 45 69 139 127 64 40 64 40 58 97 -9 98 -83 327 -148 458 -60 121 -60 121 -337 127 -305 7 -1218 8 -1242 1 z "/><path id="pmSi1Lec6" d="M 5641 8890 c -25 -16 -152 -381 -171 -493 -18 -102 -10 -128 58 -179 61 -46 102 -111 102 -161 0 -29 0 -29 31 3 17 17 59 49 93 72 33 23 78 54 99 71 20 16 96 65 169 108 127 77 189 103 273 116 22 3 81 16 130 29 50 13 106 24 125 24 54 0 342 102 353 126 6 10 13 24 16 30 3 7 23 36 44 67 31 45 37 61 34 94 -5 53 -13 63 -49 63 -23 0 -29 4 -24 15 5 13 -31 15 -287 15 -161 0 -449 1 -640 3 -192 1 -352 0 -356 -3 z "/><path id="piGsh5EiK" d="M 997 8198 c -125 -71 -282 -224 -323 -312 -78 -172 -102 -486 -58 -761 28 -170 106 -455 126 -455 4 0 8 7 8 15 0 9 9 15 23 15 24 0 49 -14 107 -62 19 -16 41 -33 48 -39 16 -13 16 -3 -3 74 -77 328 -82 397 -40 541 18 62 25 110 25 171 0 61 7 105 24 162 39 124 42 165 16 217 -21 45 -21 45 5 123 23 71 29 80 68 102 23 13 65 46 94 74 49 46 73 53 73 21 0 -33 18 -10 35 46 25 82 14 94 -93 98 -71 3 -81 0 -135 -30 z "/><path id="pMreboQD3" d="M 8280 8217 c -21 -11 -25 -19 -22 -51 2 -21 12 -65 22 -99 11 -34 20 -75 20 -91 0 -20 4 -27 14 -23 16 6 24 -29 29 -128 2 -50 2 -50 30 4 40 79 101 146 168 187 32 20 59 43 59 50 0 7 8 18 18 24 15 9 13 14 -23 45 -66 58 -140 89 -220 93 -45 2 -79 -2 -95 -11 z "/><path id="pPvXWGBA1" d="M 2329 2263 c -18 -48 -31 -214 -25 -330 7 -151 43 -289 62 -240 3 9 15 17 27 17 11 0 44 16 74 37 47 32 56 44 82 112 56 145 56 148 13 200 -20 25 -63 74 -95 110 -31 35 -65 76 -74 92 -22 37 -50 37 -64 2 z "/></g></g><g id="l4r5D9gx6nsvnIfWXsgIhJl" fill="rgb(0,128,221)" style="" transform="matrix(1.096781, 0, 0, 1.093525, 1116.857178, 490.587158)"><g style="transform: none;"><path id="ppkLkVii5" d="M 2793 6799 c -27 -17 -33 -27 -33 -56 0 -53 41 -100 152 -176 80 -54 104 -66 125 -61 33 9 55 62 57 138 1 58 1 58 -57 111 -32 29 -71 55 -89 59 -61 12 -122 6 -155 -15 z "/></g></g><g id="l4s267HXffgIWPl8Dy5CFlJ" fill="rgb(5,107,183)" style="" transform="matrix(1.096781, 0, 0, 1.093525, 1116.857178, 490.587158)"><g style="transform: none;"><path id="p17QsaU8mm" d="M3488.3639388816937 7007.2581477466103 C 3488.3639388816937 7109.4441182240546 3405.5258425010302 7192.2822146047181 3303.3398720235859 7192.2822146047181 3201.1539015461417 7192.2822146047181 3118.31580516547825 7109.4441182240546 3118.31580516547825 7007.2581477466103 3118.31580516547825 6905.0721772691661 3201.1539015461417 6822.23408088850266 3303.3398720235859 6822.23408088850266 3405.5258425010302 6822.23408088850266 3488.3639388816937 6905.0721772691661 3488.3639388816937 7007.2581477466103 Z M3220.0 7183.0 "/><path id="p18BSgeC7Z" d="M 2810 6812 c -19 -10 -48 -35 -64 -55 -26 -32 -30 -47 -33 -114 -5 -91 10 -129 67 -174 83 -66 179 -63 249 7 46 47 49 60 11 46 -20 -7 -40 2 -120 57 -150 102 -185 168 -114 212 31 19 45 21 102 16 45 -5 62 -3 55 4 -5 5 -34 12 -64 15 -42 4 -62 1 -89 -14 z "/></g></g><ellipse style="stroke: rgb(0, 0, 0); fill: rgb(255, 255, 255);" cx="7514.668" cy="6857.868" rx="276.483" ry="258.951" id="object-2"/><ellipse style="stroke: rgb(0, 0, 0); fill: rgb(255, 255, 255);" cx="5157.769" cy="6885.103" rx="331.475" ry="296.735" id="object-3"/><g id="l7BjGOVjwX4nUb4mivburKp" fill="rgb(8,50,85)" style="" transform="matrix(1.096781, 0, 0, 1.093525, 1116.857178, 490.587158)"><g style="transform: none;"><path id="pYK0EiUCM" d="M 3567 2982 c -3 -16 -3 -54 0 -85 6 -61 -10 -117 -33 -117 -7 0 -25 5 -39 12 -14 6 -28 8 -31 5 -17 -16 196 -255 319 -359 48 -41 48 -41 83 -7 20 19 42 46 50 61 8 15 23 32 34 38 24 13 30 10 200 -100 79 -51 89 -55 143 -54 93 2 91 17 -6 62 -47 23 -106 48 -132 56 -73 25 -114 49 -200 117 -108 85 -299 281 -338 346 -18 29 -35 53 -38 53 -4 0 -9 -13 -12 -28 z "/><path id="pJJdDEsTF" d="M 5350 1551 c -48 -26 -71 -53 -60 -71 8 -12 14 -12 45 -1 33 11 38 11 50 -6 8 -10 14 -42 15 -75 0 -31 4 -59 9 -62 5 -3 12 -22 15 -41 6 -28 11 -35 31 -35 13 0 27 5 30 10 3 6 21 10 38 10 28 0 39 9 85 70 69 92 68 101 -8 81 -19 -5 -51 -12 -71 -15 -36 -6 -36 -6 -48 64 -17 93 -52 112 -131 71 z "/><path id="p10kFmjYaf" d="M 3955 1373 c 4 -38 9 -70 11 -72 1 -2 -4 -20 -12 -41 -14 -35 -14 -41 1 -64 11 -16 27 -26 41 -26 15 0 24 -6 24 -15 0 -17 32 -20 60 -5 16 9 18 20 14 99 -2 50 -8 101 -13 114 -13 34 -72 77 -105 77 -28 0 -28 0 -21 -67 z "/></g></g><g id="l3iOFxhz3c8KUOxHyqV7zpC" fill="rgb(7,31,57)" style="" transform="matrix(1.096781, 0, 0, 1.093525, 1116.857178, 490.587158)"><g style="transform: none;"><path id="pZ8ufNn4a" d="M 1895 9109 c -353 -6 -390 -12 -415 -59 -14 -27 -6 -81 18 -110 24 -30 164 -44 369 -37 163 6 163 6 133 -53 -52 -102 -100 -227 -120 -311 -25 -106 -44 -341 -38 -479 4 -108 4 -108 -36 -120 -99 -30 -205 -103 -250 -172 -10 -16 -21 -28 -25 -28 -14 0 -74 157 -78 205 -3 32 5 91 21 164 30 133 32 180 9 229 -47 99 -158 154 -313 154 -103 0 -185 -19 -296 -71 -231 -109 -390 -289 -473 -536 -45 -136 -61 -254 -61 -460 0 -271 40 -495 139 -795 92 -276 182 -470 337 -727 197 -326 329 -492 627 -786 121 -121 236 -230 254 -244 33 -25 33 -25 33 -302 -1 -437 18 -784 55 -1007 48 -293 160 -613 305 -868 33 -58 60 -116 60 -127 0 -12 -14 -64 -30 -116 -51 -160 -63 -253 -57 -468 4 -176 7 -200 40 -326 64 -251 168 -441 331 -607 111 -115 148 -135 238 -136 65 -1 69 1 104 35 36 36 36 37 51 170 10 96 22 153 43 206 31 81 93 188 139 243 35 41 18 47 179 -62 196 -132 510 -270 712 -314 90 -20 99 -19 73 7 -19 20 -20 24 -7 55 8 18 12 48 9 67 -3 18 -7 51 -9 72 -3 30 -9 41 -22 43 -11 2 -82 29 -159 59 -273 107 -606 301 -760 442 -302 278 -482 486 -628 726 -163 268 -312 661 -367 969 -40 221 -44 368 -42 1806 1 1375 1 1375 89 1443 116 89 202 190 258 302 70 143 80 183 80 320 0 114 -2 124 -33 197 -42 96 -112 171 -199 212 -75 35 -73 30 -74 268 -1 249 18 328 143 587 41 84 58 111 76 116 30 7 836 6 1209 -2 282 -6 282 -6 342 -127 61 -122 137 -351 148 -447 6 -48 6 -48 -57 -86 -90 -54 -137 -101 -145 -146 -5 -24 -3 -42 5 -52 19 -23 83 -18 153 11 260 110 572 171 827 161 162 -6 405 -52 643 -121 87 -25 164 -46 172 -46 23 0 19 59 -7 110 -15 28 -44 61 -80 87 -38 29 -59 53 -63 72 -9 40 10 135 52 266 32 99 109 304 119 314 2 2 354 3 782 2 655 -2 780 -4 799 -16 22 -15 182 -276 210 -343 28 -67 41 -178 45 -376 3 -199 3 -199 -60 -212 -124 -25 -187 -74 -245 -189 -62 -124 -74 -248 -37 -390 25 -98 92 -239 154 -323 49 -66 148 -146 194 -156 27 -7 27 -7 30 -954 1 -521 7 -1147 13 -1392 12 -461 8 -556 -27 -820 -30 -218 -59 -335 -139 -555 -46 -128 -195 -441 -250 -525 -23 -36 -61 -97 -83 -135 -68 -119 -239 -314 -399 -458 -249 -223 -600 -444 -875 -553 -97 -38 -97 -38 -155 -116 -51 -69 -62 -78 -90 -78 -17 0 -35 -5 -38 -10 -13 -21 -34 -9 -40 23 -4 17 -11 37 -16 43 -5 6 -8 33 -7 60 1 33 -4 58 -16 76 -18 27 -19 27 -54 12 -24 -10 -38 -11 -40 -4 -2 5 -7 10 -11 10 -5 0 -48 -62 -96 -138 -77 -120 -111 -160 -264 -316 -159 -161 -278 -266 -302 -266 -5 0 -9 31 -9 69 0 125 -19 189 -134 461 -41 97 -73 135 -104 126 -11 -4 -56 -47 -101 -95 -44 -49 -102 -101 -128 -117 -27 -15 -58 -38 -70 -51 -12 -12 -32 -23 -43 -23 -16 0 -28 -15 -51 -66 -56 -124 -56 -200 2 -248 73 -62 137 -42 257 81 79 82 85 86 98 68 8 -11 14 -46 15 -84 1 -36 2 -142 3 -236 1 -120 6 -178 15 -197 20 -40 72 -61 131 -53 91 13 301 149 553 358 167 140 225 200 278 287 45 75 45 75 151 96 139 27 209 47 343 96 193 70 499 237 588 322 15 14 32 26 37 26 11 0 101 -132 135 -200 44 -88 62 -149 75 -266 20 -177 59 -234 161 -234 99 0 192 56 294 179 186 223 300 501 336 820 19 171 -16 442 -78 599 -25 62 -25 62 25 150 91 159 142 271 223 489 142 385 177 660 163 1283 -5 195 -8 372 -8 392 0 35 12 49 195 230 405 399 579 631 795 1053 261 508 369 866 381 1262 6 179 -4 275 -43 423 -46 169 -104 293 -189 396 -56 69 -182 181 -256 226 -237 144 -554 123 -640 -44 -30 -59 -32 -105 -10 -255 13 -86 19 -159 15 -185 -6 -36 -48 -154 -60 -167 -2 -2 -33 28 -69 67 -48 51 -80 76 -119 93 -54 22 -54 22 -58 268 -4 245 -5 246 -36 343 -26 77 -77 207 -149 376 -4 9 38 12 193 12 260 1 293 9 311 78 11 44 -5 72 -54 94 -44 19 -74 21 -557 29 -560 9 -5010 8 -5541 -2 z  m 3441 -221 c 4 -4 -7 -47 -24 -95 -17 -49 -50 -167 -73 -263 -23 -96 -43 -176 -44 -177 -1 -2 -35 9 -76 23 -105 36 -267 64 -374 64 -92 0 -256 -18 -397 -43 -43 -8 -80 -12 -83 -9 -3 3 -5 15 -5 27 0 12 -29 111 -64 221 -35 109 -67 214 -71 232 -7 32 -7 32 598 30 333 -2 609 -6 613 -10 z  m -4121 -688 c 13 -13 11 -24 -10 -93 -43 -133 -29 -247 45 -385 48 -88 161 -241 223 -301 45 -43 45 -43 127 33 101 95 211 178 270 205 129 58 248 -10 258 -148 11 -145 -137 -374 -340 -526 -103 -77 -117 -117 -79 -226 17 -50 19 -109 25 -788 4 -404 7 -737 8 -740 5 -50 -29 -27 -153 103 -270 285 -312 337 -449 564 -51 85 -108 177 -127 205 -91 136 -276 567 -327 762 -53 204 -66 282 -76 457 -9 147 -8 195 5 281 32 214 63 293 158 393 79 84 157 148 234 192 53 30 64 33 125 30 43 -2 73 -9 83 -18 z  m 7278 -13 c 104 -51 230 -186 297 -317 84 -165 112 -453 70 -736 -51 -346 -149 -611 -399 -1074 -142 -263 -302 -476 -542 -723 -144 -148 -144 -148 -141 630 2 667 5 786 18 837 9 32 13 68 10 81 -3 13 -39 48 -83 81 -113 84 -183 162 -241 267 -59 106 -82 184 -82 277 0 119 62 170 190 156 79 -9 162 -54 267 -145 80 -69 99 -81 149 -91 77 -16 94 -7 155 87 151 231 183 374 129 563 -29 99 -29 112 0 127 40 22 137 12 203 -20 z  m -1309 -5963 c 29 -112 17 -346 -25 -488 -45 -151 -191 -461 -218 -461 -9 0 -27 41 -51 120 -20 66 -42 134 -49 150 -18 44 -96 168 -120 189 -19 18 -17 20 134 169 149 148 246 272 284 366 17 40 25 32 45 -45 z  m -4779 1 c 72 -97 211 -250 319 -350 58 -54 106 -104 106 -110 0 -7 -32 -48 -70 -91 -92 -102 -160 -244 -176 -365 -4 -27 -10 -49 -14 -49 -4 0 -51 87 -104 193 -112 225 -143 320 -152 475 -9 155 16 353 43 351 5 0 26 -24 48 -54 z " style=""/><path id="pgdvPwnt9" d="M 4400 6393 c -89 -6 -216 -24 -280 -39 -168 -39 -202 -48 -306 -80 -210 -63 -483 -192 -654 -308 -74 -50 -157 -122 -282 -245 -204 -199 -206 -204 -143 -279 55 -63 120 -71 186 -23 74 53 228 182 282 236 56 56 56 56 98 -2 150 -205 354 -312 493 -259 63 24 136 106 189 213 63 124 86 208 95 343 7 115 7 115 67 127 172 34 333 47 605 46 238 0 300 -3 465 -26 105 -14 197 -28 205 -31 12 -5 15 -26 17 -94 5 -259 99 -483 235 -562 63 -35 140 -40 229 -14 139 42 225 115 304 261 28 51 55 93 61 93 6 0 21 -12 35 -26 13 -14 62 -57 109 -95 47 -37 113 -100 148 -139 70 -78 97 -87 159 -52 53 29 109 108 99 140 -12 36 -272 278 -381 354 -146 101 -213 139 -375 208 -307 130 -598 205 -936 240 -179 19 -558 25 -724 13 z  m -530 -396 c 0 -41 -23 -186 -36 -223 -18 -52 -97 -170 -125 -185 -31 -16 -55 -3 -129 72 -59 60 -121 155 -120 186 0 8 85 51 210 104 131 56 200 72 200 46 z  m 1924 -37 c 66 -22 147 -47 178 -56 76 -22 84 -32 65 -87 -34 -100 -148 -217 -212 -217 -60 0 -143 115 -165 229 -14 72 -13 171 1 171 6 0 66 -18 133 -40 z " style=""/><path id="plWgLqQUH" d="M 4615 5310 c -123 -19 -282 -52 -340 -70 -287 -90 -566 -297 -786 -585 -157 -205 -280 -498 -310 -739 -14 -111 -6 -387 15 -506 19 -112 76 -295 118 -378 64 -127 138 -231 179 -252 21 -11 44 -17 53 -14 25 9 36 56 36 144 0 47 0 93 1 102 0 9 -20 64 -45 120 -129 298 -154 643 -66 937 36 120 103 262 180 376 101 151 137 192 273 311 263 229 586 326 953 286 339 -38 609 -162 811 -375 155 -163 165 -180 324 -554 75 -176 105 -413 75 -594 -20 -122 -77 -312 -121 -407 -133 -283 -410 -533 -732 -663 -182 -74 -372 -105 -563 -94 -109 6 -261 28 -281 41 -5 3 -34 0 -64 -6 -30 -6 -60 -8 -67 -3 -7 4 -16 8 -19 8 -3 0 -34 18 -68 40 -66 42 -118 74 -165 100 -36 21 -71 13 -93 -23 -9 -15 -33 -44 -52 -65 -36 -38 -36 -38 -6 -63 30 -25 295 -158 389 -196 257 -103 587 -117 892 -39 296 76 564 228 755 430 238 251 357 486 431 855 29 143 31 398 4 551 -21 117 -82 306 -138 423 -154 326 -498 659 -810 783 -228 91 -583 146 -763 119 z "/><path id="pSvxXqeKK" d="M5469.077880676826 3670.415591917632 C 5469.077880676826 4076.9869059786765 5139.486709379627 4406.578077275875 4732.915395318582 4406.578077275875 4326.3440812575377 4406.578077275875 3996.752909960339 4076.9869059786765 3996.752909960339 3670.415591917632 3996.752909960339 3263.8442778565873 4326.3440812575377 2934.2531065593885 4732.915395318582 2934.2531065593885 5139.486709379627 2934.2531065593885 5469.077880676826 3263.8442778565873 5469.077880676826 3670.415591917632 Z M4608.0 4400.0  M5184.089056789847 3390.790260580132 C 5184.089056789847 3256.3758840617475 5075.124675231867 3147.411502503767 4940.710298713482 3147.411502503767 4806.295922195098 3147.411502503767 4697.3315406371175 3256.3758840617475 4697.3315406371175 3390.790260580132 4697.3315406371175 3525.2046370985163 4806.295922195098 3634.1690186564965 4940.710298713482 3634.1690186564965 5075.124675231867 3634.1690186564965 5184.089056789847 3525.2046370985163 5184.089056789847 3390.790260580132 Z M5047.0 3604.0 "/></g></g></svg>